<svg height="1093" viewBox="0 0 264.58299999999997 115.637" width="2500" xmlns="http://www.w3.org/2000/svg"><path d="M244.291 57.868c5.402 15.181 15.865 54.635 20.292 57.769h-28.6s-.099-5.81-1.412-10.356c-1.233-4.487-11.44-37.746-11.44-37.746h-46.62l-8.031 11.988s7.882 23.375 8.4 24.678c.954 2.447 4.876 11.436 4.876 11.436H155.59c-1.115-4.716-2.716-9.354-4.278-13.95-4.188 4.722-6.65 8.552-10.379 13.94h-21.192c-1.398-5.166-2.543-8.748-4.386-14.354-4.126 5.193-6.867 8.858-10.735 14.354H82.853s6.148-5.81 8.327-8.346c3.611-4.288 18.332-23.562 18.332-23.562l-5.647-15.824H58.373s-25.502 33.407-26.497 34.471c-1.114 1.045-8.764 12.077-8.953 13.261H0c4.7-3.659 12.412-12.264 17.1-17.974 21.01-30.42 42.492-55.562 62.576-83.423C86.016 7.986 87.11 0 87.11 0h22.425s.706 9.272 1.403 11.53c.647 2 15.571 48.898 15.92 49.405l8.295-10.8-13.646-40.983S118.303 1.174 117.239 0h27.186s.459 3.75 1.341 7.426c1.145 3.492 6.417 19.686 6.417 19.686 7.676-9.96 16.638-22.704 19.54-27.112h24.637s-4.258 2.468-11.72 11.928c-2.517 3.184-26.094 34.381-26.094 34.381s2.991 7.938 4.066 11.56c.258 1.054.457 1.76.457 1.83 0 .04.528-.617 1.483-1.83 6.347-8.029 35.785-45.802 37.516-49.045 1.413-2.646 3.472-5.58 4.706-8.824h21.594s.527 6.755 1.193 8.655zm-35.59-32.877c-3.322 7.173-20.218 28.152-20.218 28.152h29.404c-2.796-9.368-5.871-18.164-9.186-28.152zm-118.103.067c-4.69 5.736-14.807 20.376-21.558 28.085h31.147zm46.585 69.43l8.546-11.75c-.816-.855-5.663-14.843-5.663-14.843l-7.703 10.458z" fill="#04048c" stroke-width=".777"/></svg>